<?xml version="1.0" encoding="UTF-8"?><svg id="Calque_1" xmlns="http://www.w3.org/2000/svg" viewBox="0 0 100.18 100.18"><defs><style>.cls-1{fill:none;stroke:#000;stroke-miterlimit:10;stroke-width:3px;}</style></defs><path class="cls-1" d="M23.81,61.37s6.89-11.86,20.48-11.86h19.36s12.1,.87,17.32,11.86c0,0,6.13,11.69,3.06,19.92-1.31,3.52-4.76,5.78-8.51,5.78H29.83c-3.25,0-6.41-1.47-8.26-4.15-2.52-3.63-3.79-10.17,2.25-21.55Z"/><path class="cls-1" d="M33.41,27.54s-.1-16.32,16.32-16.32c0,0,17.05-2.11,17.05,16.32,0,0,.09,16.17-16.17,16.17,0,0-17.19,.27-17.19-16.17Z"/></svg>